<?xml version="1.0" encoding="UTF-8" standalone="no"?>
<!-- Created with Inkscape (http://www.inkscape.org/) -->

<svg
   version="1.1"
   id="svg92"
   width="1198.3593"
   height="1211.5941"
   viewBox="0 0 1198.3593 1211.5941"
   sodipodi:docname="PYCON_logo_flag _konturas.ai"
   inkscape:export-filename="PYCON_logo_flag _konturas.ai.svg"
   inkscape:export-xdpi="96"
   inkscape:export-ydpi="96"
   xmlns:inkscape="http://www.inkscape.org/namespaces/inkscape"
   xmlns:sodipodi="http://sodipodi.sourceforge.net/DTD/sodipodi-0.dtd"
   xmlns="http://www.w3.org/2000/svg"
   xmlns:svg="http://www.w3.org/2000/svg">
  <defs
     id="defs96">
    <clipPath
       clipPathUnits="userSpaceOnUse"
       id="clipPath106">
      <path
         d="M 0,1080 H 1113.063 V 0 H 0 Z"
         id="path104" />
    </clipPath>
  </defs>
  <sodipodi:namedview
     id="namedview94"
     pagecolor="#ffffff"
     bordercolor="#666666"
     borderopacity="1.0"
     inkscape:showpageshadow="2"
     inkscape:pageopacity="0.0"
     inkscape:pagecheckerboard="0"
     inkscape:deskcolor="#d1d1d1"
     showgrid="false"
     inkscape:zoom="0.60486111"
     inkscape:cx="742.31917"
     inkscape:cy="720.82664"
     inkscape:window-width="1920"
     inkscape:window-height="815"
     inkscape:window-x="0"
     inkscape:window-y="240"
     inkscape:window-maximized="1"
     inkscape:current-layer="g98" />
  <g
     id="g98"
     inkscape:groupmode="layer"
     inkscape:label="PYCON_logo_flag _konturas"
     transform="matrix(1.3333333,0,0,-1.3333333,-138.97277,1323.2233)">
    <g
       id="g100">
      <g
         id="g102"
         clip-path="url(#clipPath106)">
        <g
           id="g108"
           transform="translate(431.0272,843.3379)">
          <path
             d="m 0,0 c -22.474,0 -40.68,18.414 -40.68,41.185 0,22.851 18.206,41.436 40.68,41.436 22.392,0 40.679,-18.585 40.679,-41.436 C 40.679,18.414 22.392,0 0,0 m 230.177,140.229 c -37.241,6.199 -75.881,9.015 -112.942,8.843 C 80.176,148.9 44.784,145.739 13.644,140.229 -78.094,124.022 -94.75,90.099 -94.75,27.541 v -82.622 h 216.786 v -27.54 H -94.75 -176.107 c -57.394,0 -108.272,-31.438 -129.925,-91.493 H 338.57 V 27.541 c 0,58.75 -49.563,102.883 -108.393,112.688"
             style="fill:#fdb913;fill-opacity:1;fill-rule:nonzero;stroke:none"
             id="path110" />
        </g>
        <g
           id="g112"
           transform="translate(796.6317,669.2241)">
          <path
             d="M 0,0 H 184.602 C 167.859,53.315 138.099,91.493 81.358,91.493 H 0 Z"
             style="fill:#fdb913;fill-opacity:1;fill-rule:nonzero;stroke:none"
             id="path114" />
        </g>
        <g
           id="g116"
           transform="translate(124.995,669.2241)">
          <path
             d="m 0,0 c -2.116,-5.871 -3.967,-12.001 -5.504,-18.417 -19.904,-82.574 -20.787,-134.102 0,-220.323 3.246,-13.516 7.443,-26.21 12.632,-37.835 h 177.119 v 26.97 c 0,71.555 61.91,134.67 135.429,134.67 h 216.533 c 60.275,0 108.394,49.629 108.394,110.162 V 0 Z"
             style="fill:#006a44;fill-opacity:1;fill-rule:nonzero;stroke:none"
             id="path118" />
        </g>
        <g
           id="g120"
           transform="translate(796.6317,664.4512)">
          <path
             d="m 0,0 c 0,-74.633 -63.274,-137.449 -135.428,-137.449 h -216.533 c -59.312,0 -108.393,-50.763 -108.393,-110.162 v -24.191 h 636.002 c 4.991,11.547 9.581,24.22 14.103,37.835 22.634,67.907 21.671,133.211 0,220.323 -1.565,6.308 -3.277,12.456 -5.149,18.417 L 0,4.773 Z"
             style="fill:#006a44;fill-opacity:1;fill-rule:nonzero;stroke:none"
             id="path122" />
        </g>
        <g
           id="g124"
           transform="translate(132.1229,392.6494)">
          <path
             d="m 0,0 c 19.445,-43.573 52.848,-72.074 102.584,-72.074 h 74.535 V 0 Z"
             style="fill:#c1272d;fill-opacity:1;fill-rule:nonzero;stroke:none"
             id="path126" />
        </g>
        <g
           id="g128"
           transform="translate(674.8475,237.9541)">
          <path
             d="m 0,0 c 22.474,0 40.68,-18.414 40.68,-41.185 0,-22.851 -18.206,-41.436 -40.68,-41.436 -22.393,0 -40.679,18.585 -40.679,41.436 C -40.679,-18.414 -22.393,0 0,0 M -338.57,154.695 V -27.541 c 0,-58.75 51.088,-93.307 108.393,-110.161 68.622,-20.178 134.428,-23.824 216.533,0 C 40.934,-121.9 94.75,-90.1 94.75,-27.541 v 82.622 h -216.534 v 27.54 H 94.75 203.143 c 50,0 75.105,27.681 94.29,72.074 z"
             style="fill:#c1272d;fill-opacity:1;fill-rule:nonzero;stroke:none"
             id="path130" />
        </g>
        <g
           id="g132"
           transform="translate(431.0243,843.3398)">
          <path
             d="m 0,0 c -22.47,0 -40.68,18.41 -40.68,41.18 0,22.85 18.21,41.44 40.68,41.44 22.391,0 40.68,-18.59 40.68,-41.44 C 40.68,18.41 22.391,0 0,0 M 0,92.62 C -27.945,92.62 -50.68,69.544 -50.68,41.18 -50.68,12.959 -27.945,-10 0,-10 27.945,-10 50.68,12.959 50.68,41.18 50.68,69.544 27.945,92.62 0,92.62"
             style="fill:#ffffff;fill-opacity:1;fill-rule:nonzero;stroke:none"
             id="path134" />
        </g>
        <g
           id="g136"
           transform="translate(759.5945,664.4502)">
          <path
             d="M 0,0 C 0,-55.229 -44.138,-100.16 -98.391,-100.16 H -314.92 c -78.832,0 -145.431,-66.251 -145.431,-144.67 v -89.04 h -64.54 c -42.423,0 -73.864,22.254 -93.448,66.144 -4.848,10.857 -8.897,22.997 -12.037,36.088 -19.925,82.639 -19.925,133.023 -0.003,215.654 1.405,5.887 3.148,11.719 5.184,17.357 19.164,53.162 64.219,84.897 120.525,84.897 h 308.14 v 47.54 h -216.79 v 72.62 c 0,58.88 14.458,87.703 100.14,102.842 31.202,5.521 66.436,8.525 101.896,8.688 1.041,0.005 2.078,0.007 3.121,0.007 37.029,0 73.409,-2.931 108.13,-8.712 27.416,-4.571 52.579,-17.081 70.853,-35.224 C -10.09,255.078 0,231.702 0,206.43 Z m -98.391,319.12 c -37.24,6.2 -75.88,9.01 -112.939,8.84 -37.061,-0.17 -72.45,-3.33 -103.59,-8.84 -91.74,-16.21 -108.4,-50.13 -108.4,-112.69 v -82.62 h 216.79 V 96.27 h -298.14 c -57.4,0 -108.28,-31.44 -129.931,-91.5 -2.12,-5.87 -3.969,-12 -5.5,-18.41 -19.909,-82.58 -20.79,-134.1 0,-220.33 3.241,-13.51 7.441,-26.211 12.63,-37.83 19.441,-43.57 52.851,-72.07 102.58,-72.07 h 74.54 v 99.04 c 0,71.55 61.911,134.67 135.431,134.67 H -98.391 C -38.12,-110.16 10,-60.53 10,0 v 206.43 c 0,58.75 -49.561,102.88 -108.391,112.69"
             style="fill:#ffffff;fill-opacity:1;fill-rule:nonzero;stroke:none"
             id="path138" />
        </g>
        <g
           id="g140"
           transform="translate(976.8973,433.6416)">
          <path
             d="m 0,0 c -4.999,-15.051 -9.381,-26.812 -13.793,-37.025 -9.949,-23.015 -20.379,-38.577 -32.822,-48.974 -13.742,-11.481 -30.846,-17.063 -52.287,-17.063 h -334.931 v -47.549 h 216.53 v -72.62 c 0,-25.947 -9.916,-47.239 -30.313,-65.091 -16.94,-14.825 -40.78,-26.757 -70.858,-35.464 -37.424,-10.857 -72.153,-16.134 -106.176,-16.134 -34.065,0 -67.35,5.123 -104.751,16.122 -37.803,11.121 -101.222,38.976 -101.222,100.567 v 206.429 c 0,54.292 45.061,100.16 98.4,100.16 h 216.53 c 78.831,0 145.43,67.524 145.43,147.451 v 86.27 h 71.361 c 45.827,0 75.6,-26.85 93.698,-84.496 1.765,-5.623 3.442,-11.623 4.987,-17.83 C 21.575,127.152 21.639,64.934 0,0 m 9.487,217.168 c -1.57,6.311 -3.28,12.45 -5.15,18.411 -16.739,53.319 -46.5,91.5 -103.239,91.5 h -81.361 v -96.27 c 0,-74.631 -63.28,-137.451 -135.43,-137.451 h -216.53 c -59.32,0 -108.4,-50.759 -108.4,-110.16 v -206.429 c 0,-58.75 51.09,-93.3 108.4,-110.161 68.619,-20.179 134.42,-23.82 216.53,0 54.58,15.8 108.39,47.6 108.39,110.161 v 82.62 h -216.53 v 27.549 h 324.931 c 50,0 75.099,27.68 94.289,72.071 4.99,11.55 9.58,24.22 14.1,37.83 22.63,67.909 21.67,133.22 0,220.329"
             style="fill:#ffffff;fill-opacity:1;fill-rule:nonzero;stroke:none"
             id="path142" />
        </g>
        <g
           id="g144"
           transform="translate(674.8445,237.9502)">
          <path
             d="M 0,0 C 22.479,0 40.68,-18.41 40.68,-41.181 40.68,-64.03 22.479,-82.62 0,-82.62 c -22.391,0 -40.68,18.59 -40.68,41.439 C -40.68,-18.41 -22.391,0 0,0 m 0,-92.62 c 27.945,0 50.68,23.075 50.68,51.439 C 50.68,-12.96 27.945,10 0,10 -27.945,10 -50.68,-12.96 -50.68,-41.181 -50.68,-69.545 -27.945,-92.62 0,-92.62"
             style="fill:#ffffff;fill-opacity:1;fill-rule:nonzero;stroke:none"
             id="path146" />
        </g>
      </g>
    </g>
  </g>
</svg>
