<?xml version="1.0" encoding="UTF-8"?><svg id="Layer_2" xmlns="http://www.w3.org/2000/svg" viewBox="0 0 146.36 52.09"><defs><style>.cls-1{fill:#f9b716;}.cls-2{fill:#016c45;}.cls-3{fill:#fff;}.cls-4{fill:#c0282d;}</style></defs><g id="Layer_1-2"><g><g id="g486"><g id="g488"><g id="g490"><g id="g496"><path id="path498" class="cls-1" d="M18.73,8.55c-1.29,0-2.33-1.06-2.33-2.36s1.04-2.38,2.33-2.38,2.33,1.07,2.33,2.38-1.05,2.36-2.33,2.36M31.93,.51C29.8,.15,27.58,0,25.46,0c-2.12,0-4.15,.19-5.94,.51-5.26,.93-6.21,2.87-6.21,6.46v4.74h12.43v1.58H8.64c-3.29,0-6.21,1.8-7.45,5.25H38.14V6.97c0-3.37-2.84-5.9-6.21-6.46"/></g><g id="g500"><path id="path502" class="cls-1" d="M39.69,18.53h10.58c-.96-3.06-2.67-5.25-5.92-5.25h-4.66v5.25Z"/></g><g id="g504"><path id="path506" class="cls-2" d="M1.19,18.53c-.12,.34-.23,.69-.32,1.06-1.14,4.73-1.19,7.69,0,12.63,.19,.77,.43,1.5,.72,2.17H11.75v-1.55c0-4.1,3.55-7.72,7.76-7.72h12.41c3.46,0,6.21-2.85,6.21-6.32v-.27H1.19Z"/></g><g id="g508"><path id="path510" class="cls-2" d="M39.69,18.8c0,4.28-3.63,7.88-7.76,7.88h-12.41c-3.4,0-6.21,2.91-6.21,6.32v1.39H49.76c.29-.66,.55-1.39,.81-2.17,1.3-3.89,1.24-7.64,0-12.63-.09-.36-.19-.71-.3-1.06h-10.58s0,.27,0,.27Z"/></g><g id="g512"><path id="path514" class="cls-4" d="M1.6,34.38c1.11,2.5,3.03,4.13,5.88,4.13h4.27v-4.13H1.6Z"/></g><g id="g516"><path id="path518" class="cls-4" d="M32.71,43.25c1.29,0,2.33,1.06,2.33,2.36s-1.04,2.38-2.33,2.38-2.33-1.07-2.33-2.38,1.05-2.36,2.33-2.36m-19.41-8.87v10.45c0,3.37,2.93,5.35,6.21,6.32,3.93,1.16,7.71,1.37,12.41,0,3.13-.91,6.21-2.73,6.21-6.32v-4.74h-12.41v-1.58h18.63c2.87,0,4.31-1.59,5.41-4.13H13.3Z"/></g><g id="g520"><path id="path522" class="cls-3" d="M18.73,8.55c-1.29,0-2.33-1.06-2.33-2.36s1.04-2.38,2.33-2.38,2.33,1.07,2.33,2.38-1.05,2.36-2.33,2.36m0-5.31c-1.6,0-2.91,1.32-2.91,2.95s1.3,2.93,2.91,2.93,2.91-1.32,2.91-2.93-1.3-2.95-2.91-2.95"/></g><g id="g524"><path id="path526" class="cls-3" d="M37.57,18.8c0,3.17-2.53,5.74-5.64,5.74h-12.41c-4.52,0-8.34,3.8-8.34,8.29v5.1h-3.7c-2.43,0-4.23-1.28-5.36-3.79-.28-.62-.51-1.32-.69-2.07-1.14-4.74-1.14-7.63,0-12.36,.08-.34,.18-.67,.3-1,1.1-3.05,3.68-4.87,6.91-4.87H26.3v-2.73H13.88V6.97c0-3.38,.83-5.03,5.74-5.9,1.79-.32,3.81-.49,5.84-.5,.06,0,.12,0,.18,0,2.12,0,4.21,.17,6.2,.5,1.57,.26,3.01,.98,4.06,2.02,1.09,1.09,1.67,2.43,1.67,3.88v11.83ZM31.93,.51C29.8,.15,27.58,0,25.46,0s-4.15,.19-5.94,.51c-5.26,.93-6.21,2.87-6.21,6.46v4.74h12.43v1.58H8.64c-3.29,0-6.21,1.8-7.45,5.25-.12,.34-.23,.69-.32,1.06-1.14,4.73-1.19,7.69,0,12.63,.19,.77,.43,1.5,.72,2.17,1.11,2.5,3.03,4.13,5.88,4.13h4.27v-5.68c0-4.1,3.55-7.72,7.76-7.72h12.41c3.46,0,6.21-2.85,6.21-6.32V6.97c0-3.37-2.84-5.9-6.21-6.46"/></g><g id="g528"><path id="path530" class="cls-3" d="M50.03,32.03c-.29,.86-.54,1.54-.79,2.12-.57,1.32-1.17,2.21-1.88,2.81-.79,.66-1.77,.98-3,.98H25.16v2.73h12.41v4.16c0,1.49-.57,2.71-1.74,3.73-.97,.85-2.34,1.53-4.06,2.03-2.15,.62-4.14,.92-6.09,.92s-3.86-.29-6.01-.92c-2.17-.64-5.8-2.23-5.8-5.77v-11.83c0-3.11,2.58-5.74,5.64-5.74h12.41c4.52,0,8.34-3.87,8.34-8.45v-4.95h4.09c2.63,0,4.33,1.54,5.37,4.84,.1,.32,.2,.67,.29,1.02,1.25,5.02,1.25,8.59,.01,12.31m.54-12.45c-.09-.36-.19-.71-.3-1.06-.96-3.06-2.67-5.25-5.92-5.25h-4.66v5.52c0,4.28-3.63,7.88-7.76,7.88h-12.41c-3.4,0-6.21,2.91-6.21,6.32v11.83c0,3.37,2.93,5.35,6.21,6.32,3.93,1.16,7.71,1.37,12.41,0,3.13-.91,6.21-2.73,6.21-6.32v-4.74h-12.41v-1.58h18.63c2.87,0,4.31-1.59,5.41-4.13,.29-.66,.55-1.39,.81-2.17,1.3-3.89,1.24-7.64,0-12.63"/></g><g id="g532"><path id="path534" class="cls-3" d="M32.71,43.25c1.29,0,2.33,1.06,2.33,2.36s-1.04,2.38-2.33,2.38-2.33-1.07-2.33-2.38,1.05-2.36,2.33-2.36m0,5.31c1.6,0,2.91-1.32,2.91-2.95s-1.3-2.93-2.91-2.93-2.91,1.32-2.91,2.93,1.3,2.95,2.91,2.95"/></g></g></g></g><g><g><path class="cls-3" d="M60.63,29.04V8.19h7.62c1.35,0,2.47,.15,3.34,.46,.88,.31,1.57,.73,2.09,1.27,.51,.54,.87,1.16,1.07,1.87,.2,.7,.3,1.44,.3,2.22,0,1.16-.24,2.11-.71,2.87-.47,.75-1.09,1.35-1.84,1.78s-1.61,.74-2.56,.91c-.96,.17-1.92,.26-2.88,.26h-4.46v9.21h-1.97Zm6.49-10.89c.93,0,1.76-.06,2.49-.17,.73-.12,1.36-.33,1.87-.65,.51-.32,.91-.75,1.19-1.3,.28-.55,.42-1.27,.42-2.16,0-1.31-.43-2.31-1.29-2.98-.86-.68-2.23-1.01-4.1-1.01h-5.1v8.28h4.52Z"/><path class="cls-3" d="M79.05,33.09c.23,.04,.47,.08,.71,.12,.24,.04,.49,.06,.74,.06,.48,0,.88-.15,1.19-.46,.31-.31,.56-.68,.77-1.11,.2-.43,.37-.89,.51-1.36,.13-.47,.29-.87,.46-1.2l-5.82-15.09h1.94l4.81,12.88,4.81-12.88h1.88l-5.59,14.8c-.35,.95-.68,1.8-1,2.55-.32,.75-.66,1.39-1.01,1.93-.36,.53-.75,.94-1.19,1.22-.43,.28-.95,.42-1.55,.42-.31,0-.6-.02-.88-.06-.28-.04-.54-.09-.77-.14v-1.65Z"/><path class="cls-3" d="M109.74,14.24c-.41-1.78-1.16-3.04-2.26-3.79-1.1-.75-2.54-1.13-4.31-1.13-1.25,0-2.34,.25-3.24,.75-.91,.5-1.66,1.18-2.24,2.03s-1.02,1.83-1.3,2.94c-.28,1.11-.42,2.28-.42,3.52,0,1.16,.12,2.3,.36,3.42,.24,1.12,.64,2.12,1.2,3,.56,.88,1.31,1.59,2.26,2.13,.95,.54,2.13,.81,3.56,.81,.89,0,1.7-.14,2.43-.43s1.38-.69,1.93-1.2c.55-.51,1.01-1.11,1.39-1.81s.66-1.46,.85-2.29h2.06c-.23,1-.57,1.95-1.01,2.85-.44,.9-1.03,1.68-1.75,2.36s-1.6,1.21-2.64,1.61c-1.03,.4-2.24,.59-3.63,.59-1.6,0-2.97-.29-4.11-.88-1.14-.59-2.07-1.39-2.79-2.39-.72-1-1.25-2.17-1.58-3.49-.33-1.32-.49-2.73-.49-4.21,0-1.99,.25-3.68,.74-5.07,.49-1.39,1.17-2.52,2.04-3.4,.87-.88,1.89-1.52,3.07-1.91,1.18-.4,2.46-.59,3.85-.59,1.06,0,2.05,.14,2.97,.42,.92,.28,1.73,.7,2.43,1.26,.7,.56,1.28,1.25,1.74,2.07,.45,.82,.77,1.77,.94,2.85h-2.03Z"/><path class="cls-3" d="M122.6,29.44c-.97-.02-1.87-.19-2.71-.52-.84-.33-1.57-.82-2.2-1.48-.63-.66-1.12-1.48-1.49-2.46s-.55-2.13-.55-3.45c0-1.1,.14-2.13,.43-3.08s.72-1.79,1.3-2.5c.58-.71,1.3-1.28,2.17-1.69,.87-.41,1.88-.62,3.04-.62s2.2,.21,3.07,.62c.87,.42,1.59,.98,2.17,1.68,.58,.7,1.01,1.54,1.29,2.5,.28,.97,.42,2,.42,3.1,0,1.2-.16,2.28-.49,3.24-.33,.97-.8,1.8-1.4,2.49s-1.34,1.23-2.2,1.61c-.86,.38-1.81,.56-2.85,.56Zm5.1-7.9c0-.89-.1-1.72-.29-2.49-.19-.77-.49-1.44-.9-2.01-.41-.57-.93-1.02-1.56-1.35-.64-.33-1.42-.49-2.35-.49s-1.68,.18-2.33,.54c-.65,.36-1.17,.83-1.58,1.42-.41,.59-.7,1.26-.9,2.03-.19,.76-.29,1.55-.29,2.36,0,.93,.11,1.78,.33,2.56,.22,.78,.55,1.45,.97,2.01,.42,.56,.96,.99,1.59,1.3,.64,.31,1.37,.46,2.2,.46,.91,0,1.68-.18,2.33-.54,.65-.36,1.17-.84,1.58-1.43,.41-.6,.7-1.27,.9-2.03,.19-.75,.29-1.53,.29-2.35Z"/><path class="cls-3" d="M135.51,29.04h-1.74V14.04h1.74v2.08c.69-.73,1.41-1.33,2.16-1.8s1.64-.7,2.68-.7c.93,0,1.79,.16,2.58,.48,.79,.32,1.46,.87,2,1.66,.37,.54,.58,1.1,.65,1.67s.1,1.16,.1,1.78v9.82h-1.74v-9.79c0-1.35-.3-2.36-.9-3.04-.6-.68-1.59-1.01-2.98-1.01-.54,0-1.03,.08-1.48,.25-.44,.16-.84,.38-1.2,.65-.36,.27-.66,.58-.91,.93-.25,.35-.44,.71-.58,1.1-.17,.48-.28,.95-.32,1.39-.04,.44-.06,.93-.06,1.45v8.08Z"/></g><g><path class="cls-3" d="M60.63,37.89h.86v5.62h3.2v.76h-4.06v-6.38Z"/><path class="cls-3" d="M70.78,37.89h.87v6.38h-.87v-6.38Z"/><path class="cls-3" d="M82.7,37.89v.76h-2.15v5.62h-.87v-5.62h-2.15v-.76h5.17Z"/><path class="cls-3" d="M88.53,37.89h.87v2.63h3.28v-2.63h.87v6.38h-.87v-2.98h-3.28v2.98h-.87v-6.38Z"/><path class="cls-3" d="M100.87,37.89v3.94c0,.46,.09,.85,.26,1.15,.26,.46,.7,.69,1.31,.69,.74,0,1.24-.25,1.5-.75,.14-.27,.21-.64,.21-1.1v-3.94h.87v3.58c0,.78-.11,1.39-.32,1.81-.39,.77-1.12,1.15-2.2,1.15s-1.81-.38-2.2-1.15c-.21-.42-.32-1.03-.32-1.81v-3.58h.87Z"/><path class="cls-3" d="M113.22,37.89h.98l2.31,6.38h-.95l-.65-1.91h-2.52l-.69,1.91h-.89l2.4-6.38Zm1.42,3.76l-.97-2.82-1.03,2.82h2Z"/><path class="cls-3" d="M122.31,37.89h1.02l3.18,5.15v-5.15h.82v6.38h-.97l-3.23-5.15v5.15h-.82v-6.38Z"/><path class="cls-3" d="M133.93,37.89h.87v6.38h-.87v-6.38Z"/><path class="cls-3" d="M143.07,37.89h.98l2.31,6.38h-.95l-.65-1.91h-2.52l-.69,1.91h-.89l2.4-6.38Zm1.42,3.76l-.97-2.82-1.03,2.82h2Z"/></g></g></g></g></svg>