<?xml version="1.0" encoding="UTF-8"?><svg id="Layer_2" xmlns="http://www.w3.org/2000/svg" viewBox="0 0 90.7 84.72"><defs><style>.cls-1{fill:#f9b716;}.cls-2{fill:#016c45;}.cls-3{fill:#fff;}.cls-4{fill:#c0282d;}</style></defs><g id="Layer_1-2"><g><g id="g486"><g id="g488"><g id="g490"><g id="g496"><path id="path498" class="cls-1" d="M38.32,24.86c-1.29,0-2.33-1.06-2.33-2.36s1.04-2.38,2.33-2.38,2.33,1.07,2.33,2.38-1.05,2.36-2.33,2.36m13.2-8.04c-2.13-.36-4.35-.52-6.47-.51-2.12,0-4.15,.19-5.94,.51-5.26,.93-6.21,2.87-6.21,6.46v4.74h12.43v1.58H28.23c-3.29,0-6.21,1.8-7.45,5.25H57.73v-11.56c0-3.37-2.84-5.9-6.21-6.46"/></g><g id="g500"><path id="path502" class="cls-1" d="M59.28,34.84h10.58c-.96-3.06-2.67-5.25-5.92-5.25h-4.66v5.25Z"/></g><g id="g504"><path id="path506" class="cls-2" d="M20.78,34.84c-.12,.34-.23,.69-.32,1.06-1.14,4.73-1.19,7.69,0,12.63,.19,.77,.43,1.5,.72,2.17h10.15v-1.55c0-4.1,3.55-7.72,7.76-7.72h12.41c3.46,0,6.21-2.85,6.21-6.32v-.27H20.78Z"/></g><g id="g508"><path id="path510" class="cls-2" d="M59.28,35.12c0,4.28-3.63,7.88-7.76,7.88h-12.41c-3.4,0-6.21,2.91-6.21,6.32v1.39h36.46c.29-.66,.55-1.39,.81-2.17,1.3-3.89,1.24-7.64,0-12.63-.09-.36-.19-.71-.3-1.06h-10.58s0,.27,0,.27Z"/></g><g id="g512"><path id="path514" class="cls-4" d="M21.19,50.7c1.11,2.5,3.03,4.13,5.88,4.13h4.27v-4.13h-10.15Z"/></g><g id="g516"><path id="path518" class="cls-4" d="M52.3,59.57c1.29,0,2.33,1.06,2.33,2.36s-1.04,2.38-2.33,2.38-2.33-1.07-2.33-2.38,1.05-2.36,2.33-2.36m-19.41-8.87v10.45c0,3.37,2.93,5.35,6.21,6.32,3.93,1.16,7.71,1.37,12.41,0,3.13-.91,6.21-2.73,6.21-6.32v-4.74h-12.41v-1.58h18.63c2.87,0,4.31-1.59,5.41-4.13H32.89Z"/></g><g id="g520"><path id="path522" class="cls-3" d="M38.32,24.86c-1.29,0-2.33-1.06-2.33-2.36s1.04-2.38,2.33-2.38,2.33,1.07,2.33,2.38-1.05,2.36-2.33,2.36m0-5.31c-1.6,0-2.91,1.32-2.91,2.95s1.3,2.93,2.91,2.93,2.91-1.32,2.91-2.93-1.3-2.95-2.91-2.95"/></g><g id="g524"><path id="path526" class="cls-3" d="M57.16,35.12c0,3.17-2.53,5.74-5.64,5.74h-12.41c-4.52,0-8.34,3.8-8.34,8.29v5.1h-3.7c-2.43,0-4.23-1.28-5.36-3.79-.28-.62-.51-1.32-.69-2.07-1.14-4.74-1.14-7.63,0-12.36,.08-.34,.18-.67,.3-1,1.1-3.05,3.68-4.87,6.91-4.87h17.67v-2.73h-12.43v-4.16c0-3.38,.83-5.03,5.74-5.9,1.79-.32,3.81-.49,5.84-.5,.06,0,.12,0,.18,0,2.12,0,4.21,.17,6.2,.5,1.57,.26,3.01,.98,4.06,2.02,1.09,1.09,1.67,2.43,1.67,3.88v11.83Zm-5.64-18.29c-2.13-.36-4.35-.52-6.47-.51s-4.15,.19-5.94,.51c-5.26,.93-6.21,2.87-6.21,6.46v4.74h12.43v1.58H28.23c-3.29,0-6.21,1.8-7.45,5.25-.12,.34-.23,.69-.32,1.06-1.14,4.73-1.19,7.69,0,12.63,.19,.77,.43,1.5,.72,2.17,1.11,2.5,3.03,4.13,5.88,4.13h4.27v-5.68c0-4.1,3.55-7.72,7.76-7.72h12.41c3.46,0,6.21-2.85,6.21-6.32v-11.83c0-3.37-2.84-5.9-6.21-6.46"/></g><g id="g528"><path id="path530" class="cls-3" d="M69.61,48.35c-.29,.86-.54,1.54-.79,2.12-.57,1.32-1.17,2.21-1.88,2.81-.79,.66-1.77,.98-3,.98h-19.2v2.73h12.41v4.16c0,1.49-.57,2.71-1.74,3.73-.97,.85-2.34,1.53-4.06,2.03-2.15,.62-4.14,.92-6.09,.92s-3.86-.29-6.01-.92c-2.17-.64-5.8-2.23-5.8-5.77v-11.83c0-3.11,2.58-5.74,5.64-5.74h12.41c4.52,0,8.34-3.87,8.34-8.45v-4.95h4.09c2.63,0,4.33,1.54,5.37,4.84,.1,.32,.2,.67,.29,1.02,1.25,5.02,1.25,8.59,.01,12.31m.54-12.45c-.09-.36-.19-.71-.3-1.06-.96-3.06-2.67-5.25-5.92-5.25h-4.66v5.52c0,4.28-3.63,7.88-7.76,7.88h-12.41c-3.4,0-6.21,2.91-6.21,6.32v11.83c0,3.37,2.93,5.35,6.21,6.32,3.93,1.16,7.71,1.37,12.41,0,3.13-.91,6.21-2.73,6.21-6.32v-4.74h-12.41v-1.58h18.63c2.87,0,4.31-1.59,5.41-4.13,.29-.66,.55-1.39,.81-2.17,1.3-3.89,1.24-7.64,0-12.63"/></g><g id="g532"><path id="path534" class="cls-3" d="M52.3,59.57c1.29,0,2.33,1.06,2.33,2.36s-1.04,2.38-2.33,2.38-2.33-1.07-2.33-2.38,1.05-2.36,2.33-2.36m0,5.31c1.6,0,2.91-1.32,2.91-2.95s-1.3-2.93-2.91-2.93-2.91,1.32-2.91,2.93,1.3,2.95,2.91,2.95"/></g></g></g></g><g><path class="cls-3" d="M10.3,44.18l-4.35-.04,.03-3.21c0-1.03-.28-1.8-.87-2.3-.59-.51-1.29-.76-2.09-.77-.93,0-1.66,.26-2.18,.82-.52,.55-.79,1.29-.79,2.2l-.04,4.6,10.29,.09v-1.39Zm-5.51-.05l-3.56-.03,.03-2.75c0-.53,.08-.95,.23-1.26,.28-.55,.79-.83,1.55-.82,.67,0,1.14,.2,1.4,.59s.39,.89,.39,1.52l-.03,2.75Z"/><path class="cls-3" d="M12.11,34.96c.3,.23,.46,.35,.49,.39,.09,.1,.16,.21,.21,.34,.05,.12,.04,.3-.02,.53-.02,.07-.05,.15-.08,.25-.04,.09-.11,.24-.23,.43l1.11,.28c.07-.13,.12-.23,.16-.32s.08-.22,.12-.39c.18-.71,.1-1.25-.23-1.65-.33-.39-1.34-1.18-3.01-2.35-.71-.5-1.64-1.13-2.77-1.89-1.51-1.01-2.48-1.67-2.9-1.96l-.34,1.35,5.42,3.46-6.42,.45-.35,1.38,8.17-.79c.15,.1,.37,.27,.67,.49Z"/><path class="cls-3" d="M7.76,27.2c1.76,.95,3.31,1.19,4.66,.72,1.02-.36,1.81-1.06,2.37-2.1,.65-1.21,.78-2.37,.39-3.5-.32-.94-.93-1.72-1.83-2.34l-.65,1.19c.53,.44,.91,.89,1.14,1.33,.44,.84,.42,1.7-.06,2.59-.52,.96-1.24,1.51-2.17,1.64-.92,.13-1.91-.09-2.97-.67-1.29-.7-2.11-1.49-2.44-2.37-.34-.88-.27-1.75,.21-2.63,.39-.72,.86-1.18,1.42-1.4,.56-.21,1.16-.23,1.82-.04l.65-1.19c-.8-.35-1.68-.37-2.62-.07-.94,.3-1.72,1.01-2.33,2.15-.72,1.33-.82,2.62-.3,3.88,.48,1.16,1.38,2.1,2.72,2.83Z"/><path class="cls-3" d="M14.77,18.52c.86,.8,1.75,1.23,2.67,1.26,.92,.04,1.73-.32,2.43-1.06,.84-.9,1.17-1.83,1-2.79s-.7-1.86-1.58-2.69c-.91-.86-1.83-1.26-2.75-1.22-.92,.04-1.71,.41-2.37,1.11-.73,.78-1.04,1.66-.93,2.63,.11,.97,.62,1.89,1.54,2.75Zm.17-4.61c.59-.63,1.25-.83,2-.61,.47,.14,.96,.45,1.47,.93,.56,.53,.97,1.12,1.22,1.78,.25,.66,.09,1.29-.47,1.89-.51,.55-1.08,.77-1.71,.66-.62-.11-1.23-.44-1.81-.99-.61-.57-1-1.18-1.2-1.83-.19-.65-.03-1.26,.5-1.81Z"/><path class="cls-3" d="M21.96,8.1c.12-.16,.31-.32,.56-.48,.49-.33,.96-.36,1.4-.1,.27,.16,.53,.43,.78,.81l2.63,3.93,1.06-.71-2.68-4c-.42-.63-.83-1.05-1.23-1.28-.72-.41-1.53-.32-2.41,.27-.4,.27-.72,.6-.94,.97-.22,.38-.36,.85-.41,1.41l-.59-.88-.99,.67,4.17,6.23,1.05-.7-2.19-3.26c-.27-.41-.46-.74-.55-.99-.09-.25-.12-.54-.09-.86,.05-.4,.18-.74,.41-1.02Z"/><polygon class="cls-3" points="35.45 5.08 33.39 5.72 32.28 2.1 31.72 2.27 32.98 6.38 35.6 5.58 35.45 5.08"/><rect class="cls-3" x="39.5" y=".42" width=".59" height="4.3" transform="translate(.03 5.61) rotate(-8.06)"/><polygon class="cls-3" points="44.61 .51 46.06 .55 45.97 4.34 46.56 4.35 46.65 .56 48.1 .59 48.11 .08 44.62 0 44.61 .51"/><polygon class="cls-3" points="55.4 5.65 56.36 1.45 55.78 1.32 55.39 3.05 53.23 2.56 53.62 .83 53.05 .7 52.1 4.89 52.67 5.02 53.12 3.06 55.27 3.55 54.83 5.51 55.4 5.65"/><path class="cls-3" d="M63.6,6.83l1.01-2.2-.54-.25-1.11,2.42c-.13,.28-.28,.49-.44,.61-.31,.23-.68,.24-1.13,.03-.38-.17-.58-.44-.61-.8-.02-.24,.04-.5,.17-.78l1.11-2.42-.53-.25-1.01,2.2c-.22,.48-.33,.88-.32,1.2,.02,.58,.36,1.02,1.02,1.33,.66,.31,1.22,.28,1.68-.08,.25-.2,.49-.54,.71-1.02Z"/><path class="cls-3" d="M67.96,10.19l1.37,1.01-.41,1.3,.51,.38,1.29-4.39-.53-.39-3.86,2.51,.48,.35,1.14-.76Zm2.1-1.4l-.6,1.92-1.08-.8,1.69-1.12Z"/><polygon class="cls-3" points="75.44 13.77 74.32 17.71 74.76 18.19 77.95 15.31 77.58 14.9 75 17.23 76.15 13.31 75.69 12.79 72.49 15.67 72.86 16.09 75.44 13.77"/><rect class="cls-3" x="77.27" y="20.77" width="4.3" height=".59" transform="translate(.95 45.43) rotate(-32.1)"/><path class="cls-3" d="M79.99,26.62l1.37-.06,.65,1.57-1.03,.9,.24,.59,3.38-3.08-.25-.61-4.6,.14,.23,.55Zm3.89-.17l-1.51,1.33-.51-1.25,2.02-.08Z"/><path class="cls-3" d="M80.41,39.23l-.02,1.39,4.35,.05-.04,3.21c-.01,1.03,.28,1.8,.87,2.3,.59,.51,1.29,.76,2.09,.77,.93,.01,1.66-.26,2.18-.81,.52-.55,.79-1.29,.8-2.2l.05-4.6-10.29-.12Zm9.04,4.25c0,.53-.08,.95-.23,1.25-.28,.55-.79,.83-1.55,.82-.67,0-1.14-.21-1.4-.6-.26-.39-.39-.9-.38-1.52l.03-2.75,3.56,.04-.03,2.75Z"/><path class="cls-3" d="M78.57,49.81c-.3-.23-.46-.35-.49-.39-.09-.1-.16-.21-.21-.34-.05-.12-.04-.3,.02-.53,.02-.07,.05-.15,.08-.25,.04-.09,.11-.24,.23-.43l-1.11-.28c-.07,.13-.12,.23-.16,.32-.04,.09-.08,.22-.12,.39-.18,.71-.1,1.25,.23,1.65,.33,.39,1.34,1.18,3.01,2.36,.71,.5,1.64,1.13,2.77,1.89,1.51,1.02,2.48,1.67,2.9,1.96l.34-1.35-5.42-3.47,6.42-.44,.35-1.38-8.17,.78c-.15-.1-.37-.27-.67-.49Z"/><path class="cls-3" d="M82.91,57.57c-1.76-.95-3.31-1.2-4.66-.72-1.02,.36-1.81,1.06-2.38,2.1-.65,1.21-.79,2.37-.4,3.5,.32,.94,.93,1.72,1.83,2.35l.65-1.19c-.53-.44-.91-.89-1.14-1.33-.44-.84-.42-1.7,.06-2.59,.52-.96,1.25-1.51,2.17-1.64,.92-.13,1.91,.1,2.97,.67,1.29,.7,2.11,1.49,2.44,2.37,.33,.88,.26,1.75-.21,2.63-.39,.72-.86,1.18-1.42,1.39-.56,.21-1.16,.23-1.82,.04l-.65,1.19c.8,.35,1.68,.37,2.62,.08,.94-.3,1.72-1.01,2.34-2.14,.72-1.33,.82-2.62,.3-3.88-.47-1.16-1.38-2.11-2.71-2.83Z"/><path class="cls-3" d="M75.89,66.25c-.86-.81-1.75-1.23-2.67-1.27-.92-.04-1.73,.31-2.43,1.06-.84,.89-1.18,1.83-1,2.79,.17,.97,.7,1.86,1.58,2.69,.91,.86,1.83,1.27,2.75,1.22,.92-.04,1.71-.41,2.37-1.11,.73-.78,1.05-1.66,.94-2.63-.11-.97-.62-1.89-1.54-2.76Zm-.18,4.61c-.59,.63-1.25,.83-2,.61-.47-.14-.96-.45-1.47-.93-.56-.53-.97-1.12-1.22-1.78-.25-.66-.09-1.29,.48-1.89,.52-.55,1.08-.77,1.71-.65,.62,.11,1.23,.44,1.81,.99,.6,.57,1,1.18,1.19,1.84,.19,.65,.03,1.26-.5,1.81Z"/><path class="cls-3" d="M66.28,70.51l2.18,3.27c.27,.41,.46,.74,.55,.99,.09,.25,.12,.54,.08,.87-.05,.4-.18,.74-.41,1.02-.13,.16-.31,.32-.56,.48-.49,.33-.96,.36-1.4,.09-.27-.16-.53-.43-.78-.81l-2.62-3.93-1.07,.71,2.67,4c.42,.63,.83,1.06,1.22,1.28,.72,.41,1.53,.32,2.41-.27,.4-.27,.72-.59,.94-.97,.22-.38,.36-.85,.41-1.41l.59,.89,1-.66-4.16-6.24-1.05,.7Z"/><polygon class="cls-3" points="55 79.17 55.15 79.66 57.21 79.03 58.32 82.66 58.88 82.49 57.62 78.37 55 79.17"/><rect class="cls-3" x="50.51" y="80.01" width=".59" height="4.3" transform="translate(-10.83 7.78) rotate(-7.92)"/><polygon class="cls-3" points="44.63 80.38 44.04 80.37 43.95 84.16 42.5 84.12 42.48 84.64 45.97 84.72 45.99 84.21 44.54 84.17 44.63 80.38"/><polygon class="cls-3" points="37.49 81.64 35.33 81.15 35.78 79.19 35.21 79.05 34.24 83.25 34.82 83.38 35.22 81.65 37.37 82.14 36.97 83.87 37.55 84.01 38.51 79.81 37.94 79.68 37.49 81.64"/><path class="cls-3" d="M29.4,76.75c-.66-.31-1.22-.28-1.68,.08-.25,.2-.49,.54-.71,1.02l-1.02,2.19,.53,.25,1.12-2.41c.13-.28,.28-.49,.44-.61,.3-.23,.68-.24,1.13-.03,.38,.17,.58,.44,.61,.8,.02,.24-.04,.5-.17,.78l-1.12,2.41,.53,.25,1.02-2.19c.22-.48,.33-.88,.32-1.2-.02-.58-.36-1.02-1.02-1.33Z"/><path class="cls-3" d="M22.64,74.46l-1.37-1.01,.42-1.29-.51-.38-1.31,4.39,.53,.39,3.86-2.5-.48-.36-1.14,.76Zm-2.11,1.4l.61-1.92,1.08,.8-1.69,1.12Z"/><polygon class="cls-3" points="15.19 70.89 16.32 66.95 15.88 66.46 12.68 69.34 13.05 69.75 15.64 67.43 14.48 71.35 14.94 71.86 18.15 68.99 17.77 68.57 15.19 70.89"/><rect class="cls-3" x="9.07" y="63.29" width="4.3" height=".59" transform="translate(-31.95 15.58) rotate(-31.96)"/><path class="cls-3" d="M10.66,58.02l-1.37,.06-.64-1.58,1.03-.89-.24-.59-3.39,3.08,.25,.61,4.6-.13-.23-.55Zm-3.89,.16l1.51-1.32,.51,1.25-2.02,.08Z"/><path class="cls-3" d="M6.43,53.85s-1.16-2.6-1.24-6.22h-.4c.09,3.72,1.23,6.28,1.28,6.39l.37-.17Z"/><path class="cls-3" d="M85.51,37.06h.4c-.09-3.72-1.23-6.28-1.28-6.39l-.37,.17s1.16,2.6,1.24,6.22Z"/></g></g></g></svg>