<?xml version="1.0" encoding="UTF-8"?><svg id="Layer_2" xmlns="http://www.w3.org/2000/svg" viewBox="0 0 62.71 84.78"><defs><style>.cls-1{fill:#006b44;}.cls-2{fill:#fbb817;}.cls-3{fill:#c0272d;}.cls-4{fill:#1d1c1a;}</style></defs><g id="Layer_1-2"><g><g id="g486"><g id="g488"><g id="g490"><g id="g496"><path id="path498" class="cls-2" d="M24.33,8.55c-1.29,0-2.33-1.06-2.33-2.36s1.04-2.38,2.33-2.38,2.33,1.07,2.33,2.38-1.05,2.36-2.33,2.36M37.52,.51C35.39,.15,33.17,0,31.05,0c-2.12,0-4.15,.19-5.94,.51-5.26,.93-6.21,2.87-6.21,6.46v4.74h12.43v1.58H14.23c-3.29,0-6.21,1.8-7.45,5.25H43.74V6.97c0-3.37-2.84-5.9-6.21-6.46"/></g><g id="g500"><path id="path502" class="cls-2" d="M45.29,18.53h10.58c-.96-3.06-2.67-5.25-5.92-5.25h-4.66v5.25Z"/></g><g id="g504"><path id="path506" class="cls-1" d="M6.78,18.53c-.12,.34-.23,.69-.32,1.06-1.14,4.73-1.19,7.69,0,12.63,.19,.77,.43,1.5,.72,2.17h10.15v-1.55c0-4.1,3.55-7.72,7.76-7.72h12.41c3.46,0,6.21-2.85,6.21-6.32v-.27H6.78Z"/></g><g id="g508"><path id="path510" class="cls-1" d="M45.29,18.8c0,4.28-3.63,7.88-7.76,7.88h-12.41c-3.4,0-6.21,2.91-6.21,6.32v1.39H55.36c.29-.66,.55-1.39,.81-2.17,1.3-3.89,1.24-7.64,0-12.63-.09-.36-.19-.71-.3-1.06h-10.58s0,.27,0,.27Z"/></g><g id="g512"><path id="path514" class="cls-3" d="M7.19,34.38c1.11,2.5,3.03,4.13,5.88,4.13h4.27v-4.13H7.19Z"/></g><g id="g516"><path id="path518" class="cls-3" d="M38.31,43.25c1.29,0,2.33,1.06,2.33,2.36s-1.04,2.38-2.33,2.38-2.33-1.07-2.33-2.38,1.05-2.36,2.33-2.36m-19.41-8.87v10.45c0,3.37,2.93,5.35,6.21,6.32,3.93,1.16,7.71,1.37,12.41,0,3.13-.91,6.21-2.73,6.21-6.32v-4.74h-12.41v-1.58h18.63c2.87,0,4.31-1.59,5.41-4.13H18.9Z"/></g><g id="g520"><path id="path522" class="cls-4" d="M24.33,8.55c-1.29,0-2.33-1.06-2.33-2.36s1.04-2.38,2.33-2.38,2.33,1.07,2.33,2.38-1.05,2.36-2.33,2.36m0-5.31c-1.6,0-2.91,1.32-2.91,2.95s1.3,2.93,2.91,2.93,2.91-1.32,2.91-2.93-1.3-2.95-2.91-2.95"/></g><g id="g524"><path id="path526" class="cls-4" d="M43.17,18.8c0,3.17-2.53,5.74-5.64,5.74h-12.41c-4.52,0-8.34,3.8-8.34,8.29v5.1h-3.7c-2.43,0-4.23-1.28-5.36-3.79-.28-.62-.51-1.32-.69-2.07-1.14-4.74-1.14-7.63,0-12.36,.08-.34,.18-.67,.3-1,1.1-3.05,3.68-4.87,6.91-4.87H31.9v-2.73h-12.43V6.97c0-3.38,.83-5.03,5.74-5.9,1.79-.32,3.81-.49,5.84-.5,.06,0,.12,0,.18,0,2.12,0,4.21,.17,6.2,.5,1.57,.26,3.01,.98,4.06,2.02,1.09,1.09,1.67,2.43,1.67,3.88v11.83ZM37.52,.51C35.39,.15,33.17,0,31.05,0s-4.15,.19-5.94,.51c-5.26,.93-6.21,2.87-6.21,6.46v4.74h12.43v1.58H14.23c-3.29,0-6.21,1.8-7.45,5.25-.12,.34-.23,.69-.32,1.06-1.14,4.73-1.19,7.69,0,12.63,.19,.77,.43,1.5,.72,2.17,1.11,2.5,3.03,4.13,5.88,4.13h4.27v-5.68c0-4.1,3.55-7.72,7.76-7.72h12.41c3.46,0,6.21-2.85,6.21-6.32V6.97c0-3.37-2.84-5.9-6.21-6.46"/></g><g id="g528"><path id="path530" class="cls-4" d="M55.62,32.03c-.29,.86-.54,1.54-.79,2.12-.57,1.32-1.17,2.21-1.88,2.81-.79,.66-1.77,.98-3,.98H30.75v2.73h12.41v4.16c0,1.49-.57,2.71-1.74,3.73-.97,.85-2.34,1.53-4.06,2.03-2.15,.62-4.14,.92-6.09,.92s-3.86-.29-6.01-.92c-2.17-.64-5.8-2.23-5.8-5.77v-11.83c0-3.11,2.58-5.74,5.64-5.74h12.41c4.52,0,8.34-3.87,8.34-8.45v-4.95h4.09c2.63,0,4.33,1.54,5.37,4.84,.1,.32,.2,.67,.29,1.02,1.25,5.02,1.25,8.59,.01,12.31m.54-12.45c-.09-.36-.19-.71-.3-1.06-.96-3.06-2.67-5.25-5.92-5.25h-4.66v5.52c0,4.28-3.63,7.88-7.76,7.88h-12.41c-3.4,0-6.21,2.91-6.21,6.32v11.83c0,3.37,2.93,5.35,6.21,6.32,3.93,1.16,7.71,1.37,12.41,0,3.13-.91,6.21-2.73,6.21-6.32v-4.74h-12.41v-1.58h18.63c2.87,0,4.31-1.59,5.41-4.13,.29-.66,.55-1.39,.81-2.17,1.3-3.89,1.24-7.64,0-12.63"/></g><g id="g532"><path id="path534" class="cls-4" d="M38.31,43.25c1.29,0,2.33,1.06,2.33,2.36s-1.04,2.38-2.33,2.38-2.33-1.07-2.33-2.38,1.05-2.36,2.33-2.36m0,5.31c1.6,0,2.91-1.32,2.91-2.95s-1.3-2.93-2.91-2.93-2.91,1.32-2.91,2.93,1.3,2.95,2.91,2.95"/></g></g></g></g><g><path class="cls-4" d="M.17,73.52v-15.29H5.75c.99,0,1.81,.11,2.45,.34,.64,.23,1.15,.54,1.53,.93s.64,.85,.79,1.37c.15,.52,.22,1.06,.22,1.62,0,.85-.17,1.55-.52,2.1-.35,.55-.8,.99-1.35,1.3-.55,.32-1.18,.54-1.88,.67-.7,.13-1.4,.19-2.11,.19H1.61v6.75H.17Zm4.76-7.98c.68,0,1.29-.04,1.83-.13,.54-.08,.99-.24,1.37-.48,.38-.23,.67-.55,.87-.96,.2-.4,.31-.93,.31-1.58,0-.96-.32-1.69-.95-2.19-.63-.5-1.63-.74-3-.74H1.61v6.07h3.31Z"/><path class="cls-4" d="M13.69,76.49c.17,.03,.34,.06,.52,.08,.18,.03,.36,.04,.54,.04,.35,0,.64-.11,.87-.34s.41-.5,.56-.82c.15-.32,.27-.65,.37-1s.21-.64,.34-.88l-4.27-11.07h1.42l3.52,9.45,3.52-9.45h1.38l-4.1,10.85c-.25,.69-.5,1.32-.73,1.87-.23,.55-.48,1.02-.74,1.41-.26,.39-.55,.69-.87,.89-.32,.2-.7,.31-1.14,.31-.23,0-.44-.01-.65-.04-.21-.03-.39-.06-.56-.11v-1.21Z"/><path class="cls-4" d="M36.2,62.67c-.3-1.3-.85-2.23-1.66-2.78-.81-.55-1.86-.83-3.16-.83-.92,0-1.71,.18-2.38,.55-.67,.37-1.21,.86-1.65,1.49-.43,.62-.75,1.34-.96,2.15-.2,.82-.31,1.67-.31,2.58,0,.85,.09,1.68,.27,2.51,.18,.82,.47,1.55,.88,2.2,.41,.64,.96,1.16,1.66,1.56,.69,.4,1.56,.6,2.61,.6,.65,0,1.24-.11,1.78-.32,.54-.21,1.01-.51,1.41-.88,.4-.38,.74-.82,1.02-1.33,.28-.51,.48-1.07,.63-1.68h1.51c-.17,.74-.42,1.43-.74,2.09-.33,.66-.75,1.24-1.29,1.73-.53,.49-1.17,.89-1.93,1.18-.76,.29-1.65,.44-2.66,.44-1.18,0-2.18-.22-3.02-.65-.83-.43-1.52-1.02-2.05-1.75-.53-.74-.92-1.59-1.16-2.56-.24-.97-.36-2-.36-3.09,0-1.46,.18-2.7,.54-3.72,.36-1.02,.86-1.85,1.5-2.49s1.39-1.11,2.25-1.4c.86-.29,1.8-.44,2.82-.44,.78,0,1.5,.1,2.18,.31,.67,.2,1.27,.51,1.78,.92,.52,.41,.94,.92,1.27,1.52,.33,.6,.56,1.3,.69,2.09h-1.49Z"/><path class="cls-4" d="M45.62,73.81c-.71-.01-1.37-.14-1.99-.38-.62-.24-1.15-.6-1.61-1.08-.46-.48-.83-1.08-1.09-1.8-.27-.72-.4-1.56-.4-2.53,0-.81,.11-1.56,.32-2.26,.21-.7,.53-1.31,.96-1.84,.42-.52,.96-.94,1.59-1.24,.64-.3,1.38-.46,2.23-.46s1.61,.15,2.25,.46c.64,.3,1.17,.71,1.59,1.23,.42,.52,.74,1.13,.95,1.84,.2,.71,.31,1.46,.31,2.27,0,.88-.12,1.67-.36,2.38-.24,.71-.58,1.32-1.03,1.83-.45,.51-.98,.9-1.61,1.18s-1.33,.41-2.09,.41m3.74-5.8c0-.65-.07-1.26-.21-1.83-.14-.57-.36-1.06-.66-1.48-.3-.42-.68-.75-1.15-.99-.47-.24-1.04-.36-1.72-.36s-1.24,.13-1.71,.39c-.47,.26-.86,.61-1.16,1.04-.3,.43-.52,.93-.66,1.49-.14,.56-.21,1.14-.21,1.73,0,.68,.08,1.3,.24,1.88,.16,.57,.4,1.07,.71,1.48,.31,.41,.7,.73,1.17,.95,.47,.23,1.01,.34,1.61,.34,.67,0,1.23-.13,1.71-.39,.47-.26,.86-.61,1.16-1.05,.3-.44,.52-.93,.66-1.49,.14-.55,.21-1.12,.21-1.72"/><path class="cls-4" d="M55.09,73.52h-1.27v-11h1.27v1.53c.51-.54,1.04-.98,1.58-1.32,.55-.34,1.2-.51,1.96-.51,.68,0,1.31,.12,1.89,.35,.58,.23,1.07,.64,1.46,1.22,.27,.4,.43,.8,.48,1.22,.05,.42,.07,.85,.07,1.31v7.2h-1.27v-7.18c0-.99-.22-1.73-.66-2.23-.44-.5-1.17-.74-2.19-.74-.4,0-.76,.06-1.08,.18-.33,.12-.62,.28-.88,.48-.26,.2-.48,.42-.67,.68-.18,.26-.33,.52-.42,.81-.13,.35-.21,.69-.23,1.02-.03,.33-.04,.68-.04,1.06v5.92Z"/></g><g><polygon class="cls-4" points="0 80 .63 80 .63 84.1 2.97 84.1 2.97 84.66 0 84.66 0 80"/><rect class="cls-4" x="7.42" y="80" width=".64" height="4.66"/><polygon class="cls-4" points="16.15 80 16.15 80.55 14.57 80.55 14.57 84.66 13.94 84.66 13.94 80.55 12.36 80.55 12.36 80 16.15 80"/><polygon class="cls-4" points="20.41 80 21.05 80 21.05 81.92 23.44 81.92 23.44 80 24.08 80 24.08 84.66 23.44 84.66 23.44 82.48 21.05 82.48 21.05 84.66 20.41 84.66 20.41 80"/><path class="cls-4" d="M29.44,80v2.88c0,.34,.06,.62,.19,.85,.19,.34,.51,.51,.96,.51,.54,0,.91-.18,1.1-.55,.1-.2,.16-.47,.16-.8v-2.88h.64v2.62c0,.57-.08,1.02-.23,1.32-.29,.56-.82,.85-1.61,.85s-1.33-.28-1.61-.85c-.15-.31-.23-.75-.23-1.32v-2.62h.64Z"/><path class="cls-4" d="M38.47,80h.71l1.69,4.66h-.69l-.47-1.4h-1.84l-.51,1.4h-.65l1.76-4.66Zm1.04,2.75l-.71-2.06-.75,2.06h1.46Z"/><polygon class="cls-4" points="45.12 80 45.86 80 48.19 83.76 48.19 80 48.79 80 48.79 84.66 48.08 84.66 45.72 80.9 45.72 84.66 45.12 84.66 45.12 80"/><rect class="cls-4" x="53.62" y="80" width=".64" height="4.66"/><path class="cls-4" d="M60.31,80h.71l1.69,4.66h-.69l-.47-1.4h-1.84l-.51,1.4h-.65l1.76-4.66Zm1.04,2.75l-.71-2.06-.75,2.06h1.46Z"/></g></g></g></svg>